<svg xmlns="http://www.w3.org/2000/svg" xmlns:xlink="http://www.w3.org/1999/xlink" width="303.437" height="46.444" viewBox="0 0 303.437 46.444">
  <defs>
    <clipPath id="clip-path">
      <path id="Path_7" data-name="Path 7" d="M0,26.6H303.437V-19.843H0Z" transform="translate(0 19.843)" fill="#d35508"/>
    </clipPath>
  </defs>
  <g id="Group_1913" data-name="Group 1913" transform="translate(0 19.843)">
    <g id="Group_10" data-name="Group 10" transform="translate(0 -19.843)" clip-path="url(#clip-path)">
      <g id="Group_6" data-name="Group 6" transform="translate(46.236 0.001)">
        <path id="Path_3" data-name="Path 3" d="M21.9,8.869q-4.375-5.4-8.836-10.914c.309-.218.578-.419.857-.6A24.06,24.06,0,0,1,28.553-6.593c8.176.321,14.533,4,19.249,10.568A20.819,20.819,0,0,1,51.65,17.852c-.618,9.227-5.491,15.67-13.611,19.7a24,24,0,0,1-13.76,2.055,23.646,23.646,0,0,1-16.07-8.955Q3.17,24.463-1.908,18.309c-.11-.136-.225-.264-.447-.524V38.178h-13.98V-5.247c.185-.009.379-.028.573-.028,4.283,0,8.567,0,12.852-.009a1.03,1.03,0,0,1,.9.442C5.5,4.413,13.1,13.595,20.492,22.945a9.183,9.183,0,0,0,13.252.8A9.726,9.726,0,0,0,31.181,7.783a8.35,8.35,0,0,0-8.766.793c-.131.089-.26.185-.393.274-.012.009-.035.007-.124.019" transform="translate(16.335 6.616)" fill="#d35508"/>
      </g>
      <g id="Group_7" data-name="Group 7" transform="translate(236.48 1.68)">
        <path id="Path_4" data-name="Path 4" d="M8.066,16.482V30.764H-6.017V-12.294h.6q8.977,0,17.955,0A27.392,27.392,0,0,1,21.7-10.978,12.935,12.935,0,0,1,30.531,2.506,15.089,15.089,0,0,1,27.7,10.771,14,14,0,0,1,24.1,14c-.232.152-.466.3-.754.492L33,30.776c-.262.014-.454.03-.646.03-4.983,0-9.966-.007-14.952.014a.9.9,0,0,1-.948-.606c-2.074-4.363-4.176-8.714-6.238-13.084a.924.924,0,0,0-1.074-.655,9.545,9.545,0,0,1-1.074.007M8.038,5.808c1.51,0,2.975.094,4.424-.035a5.548,5.548,0,0,0,2.4-.808,3.288,3.288,0,0,0,1.329-3.7,3.307,3.307,0,0,0-2.928-2.72,49.2,49.2,0,0,0-5.227-.267Z" transform="translate(6.017 12.294)" fill="#d35508"/>
      </g>
      <g id="Group_8" data-name="Group 8" transform="translate(0.001 1.449)">
        <path id="Path_5" data-name="Path 5" d="M24.231.007,7.515,21.777C13.062,29,18.588,36.192,24.166,43.457c-.227.019-.393.042-.559.042-5.425,0-10.849-.009-16.272.016-.625,0-.826-.407-1.1-.772Q2.757,38.046-.7,33.33c-1.091-1.479-2.179-2.959-3.366-4.571v14.7H-18.075V.061H-4.116V14.619c.04.014.08.026.122.04.14-.18.286-.356.421-.538Q1.444,7.309,6.447.5A1.08,1.08,0,0,1,7.435,0c5.344.019,10.687.012,16.033.012Z" transform="translate(18.075 0.005)" fill="#d35508"/>
      </g>
      <g id="Group_9" data-name="Group 9" transform="translate(199.295 1.288)">
        <path id="Path_6" data-name="Path 6" d="M.149,25.109C.062,10.5-.024-3.984-.111-18.54l32.436-.19V-7.373c-.241,0-.494,0-.747,0-6.125.035-12.253.08-18.378.089-.625,0-.768.183-.749.775.047,1.414.016,2.83.016,4.26h18.6V8.177H12.615v5.678H33.022V24.92l-32.874.19" transform="translate(0.111 18.73)" fill="#d35508"/>
      </g>
    </g>
    <g id="Group_11" data-name="Group 11" transform="translate(157.699 -18.335)">
      <path id="Path_8" data-name="Path 8" d="M0,0V13.976H11.857V43.409H25.88V13.955H37.527V0Z" fill="#d35508"/>
    </g>
    <g id="Group_12" data-name="Group 12" transform="translate(116.245 -18.344)">
      <path id="Path_9" data-name="Path 9" d="M0,0V13.985H11.888V43.427h14.02V13.941h11.6V0Z" fill="#d35508"/>
    </g>
    <g id="Group_14" data-name="Group 14" transform="translate(0 -19.843)" clip-path="url(#clip-path)">
      <g id="Group_13" data-name="Group 13" transform="translate(277.589 12.485)">
        <path id="Path_10" data-name="Path 10" d="M12.4,6.395a12.842,12.842,0,0,0-5.964-2.8,15.5,15.5,0,0,0-2.858-.1,1.746,1.746,0,0,0-.838.288.914.914,0,0,0-.068,1.589,5.792,5.792,0,0,0,1.4.644c2.062.7,4.157,1.308,6.193,2.067a9.727,9.727,0,0,1,4.11,2.731c2.549,3,2.76,6.4,1.355,9.9-1.512,3.764-4.5,5.851-8.421,6.654a21.185,21.185,0,0,1-8.871-.1,21.039,21.039,0,0,1-7.691-3.642c1.538-2.61,3.052-5.184,4.492-7.633,1.547.789,3.019,1.627,4.564,2.3a9.6,9.6,0,0,0,4.545.913,3.233,3.233,0,0,0,1.2-.321,1,1,0,0,0,.157-1.8,7.011,7.011,0,0,0-1.671-.772c-1.978-.7-3.991-1.3-5.943-2.06a9.715,9.715,0,0,1-4.04-2.621c-2.432-2.881-2.6-6.151-1.346-9.522A9.753,9.753,0,0,1-.259-4.042,18.9,18.9,0,0,1,15.184-1.795c1.212.756,1.2.782.538,2.011-1.1,2.041-2.2,4.08-3.324,6.179" transform="translate(9.249 4.77)" fill="#d35508"/>
      </g>
    </g>
  </g>
</svg>
