<svg id="Group_1556" data-name="Group 1556" xmlns="http://www.w3.org/2000/svg" width="89.554" height="61.129" viewBox="0 0 89.554 61.129">
  <path id="Path_3" data-name="Path 3" d="M33.988,13.765Q28.231,6.654,22.359-.6c.407-.287.761-.551,1.128-.795A31.668,31.668,0,0,1,42.747-6.586c10.761.422,19.128,5.268,25.336,13.909a27.4,27.4,0,0,1,5.065,18.266c-.813,12.144-7.227,20.625-17.914,25.93a31.588,31.588,0,0,1-18.111,2.7A31.124,31.124,0,0,1,15.969,42.438Q9.338,34.291,2.654,26.19c-.145-.179-.3-.348-.588-.69V52.342h-18.4V-4.814c.243-.012.5-.037.755-.037,5.638,0,11.275.006,16.916-.012a1.356,1.356,0,0,1,1.183.582C12.4,7.9,22.414,19.985,32.137,32.293A12.087,12.087,0,0,0,49.58,33.346a12.8,12.8,0,0,0-3.373-21.01c-3.931-1.922-7.884-1.426-11.537,1.044-.173.117-.342.243-.518.36-.015.012-.046.009-.163.025" transform="translate(16.335 6.616)" fill="#d35508"/>
</svg>
